<?xml version="1.0" standalone="no"?>
<!DOCTYPE svg PUBLIC "-//W3C//DTD SVG 20010904//EN"
 "http://www.w3.org/TR/2001/REC-SVG-20010904/DTD/svg10.dtd">
<svg version="1.0" xmlns="http://www.w3.org/2000/svg"
 width="180.000000pt" height="180.000000pt" viewBox="0 0 180.000000 180.000000"
 preserveAspectRatio="xMidYMid meet">
<metadata>
Created by potrace 1.14, written by Peter Selinger 2001-2017
</metadata>
<g transform="translate(0.000000,180.000000) scale(0.100000,-0.100000)"
fill="#000000" stroke="none">
<path d="M500 1789 c-33 -13 -68 -47 -88 -84 -15 -26 -17 -77 -20 -388 l-2
-357 -133 -3 c-140 -3 -169 -11 -214 -59 -40 -43 -43 -68 -43 -386 0 -301 1
-308 24 -357 27 -60 103 -131 155 -145 22 -6 290 -10 713 -10 656 0 679 1 732
20 69 26 137 96 160 166 15 45 16 121 14 780 l-3 729 -23 33 c-13 18 -41 41
-62 52 -38 19 -60 20 -612 19 -356 0 -582 -4 -598 -10z m1170 -119 c20 -20 20
-33 20 -713 0 -424 -4 -705 -10 -726 -13 -46 -65 -99 -110 -111 -21 -6 -250
-10 -571 -10 l-536 0 21 42 c21 43 21 51 24 773 2 729 2 730 23 748 20 16 62
17 570 17 536 0 549 0 569 -20z m-1280 -1146 c0 -300 -1 -318 -20 -349 -27
-43 -81 -69 -132 -62 -54 7 -86 31 -109 80 -17 38 -19 69 -19 322 0 238 2 284
16 303 14 21 22 22 140 22 l124 0 0 -316z"/>
<path d="M636 1444 c-21 -21 -20 -57 2 -77 16 -15 52 -17 294 -17 254 0 276 1
291 18 22 24 21 55 -1 75 -16 15 -52 17 -295 17 -237 0 -278 -2 -291 -16z"/>
<path d="M630 1101 c-16 -31 -12 -59 12 -75 20 -14 80 -16 460 -16 425 0 439
1 458 20 24 24 25 38 4 68 l-15 22 -454 0 c-439 0 -455 -1 -465 -19z"/>
<path d="M642 774 c-32 -22 -27 -73 8 -91 35 -18 893 -14 911 4 16 16 16 70 0
86 -9 9 -123 13 -454 15 -394 2 -444 1 -465 -14z"/>
<path d="M637 432 c-19 -21 -21 -45 -7 -73 10 -18 26 -19 465 -19 l455 0 15
24 c18 27 7 69 -20 80 -9 3 -214 6 -454 6 -412 0 -439 -1 -454 -18z"/>
</g>
</svg>
